<svg width="27" height="24" viewBox="0 0 27 24" fill="none" xmlns="http://www.w3.org/2000/svg">
    <path d="M20.4439 7.30911C19.9504 7.02526 19.3159 7.02526 18.752 7.30911L14.8042 9.65087L12.1253 11.1411L8.24804 13.4828C7.75457 13.7667 7.1201 13.7667 6.55614 13.4828L3.5248 11.6378C3.03133 11.354 2.67885 10.7863 2.67885 10.1476V6.59949C2.67885 6.03179 2.96084 5.4641 3.5248 5.10928L6.55614 3.33523C7.04961 3.05138 7.68407 3.05138 8.24804 3.33523L11.2794 5.18025C11.7728 5.4641 12.1253 6.03179 12.1253 6.67045V9.01221L14.8042 7.45104V5.03832C14.8042 4.47062 14.5222 3.90293 13.9582 3.54811L8.31854 0.212887C7.82507 -0.0709623 7.1906 -0.0709623 6.62663 0.212887L0.845953 3.61908C0.281984 3.90293 0 4.47062 0 5.03832V11.7088C0 12.2765 0.281984 12.8442 0.845953 13.199L6.55614 16.5342C7.04961 16.8181 7.68407 16.8181 8.24804 16.5342L12.1253 14.2634L14.8042 12.7022L18.6815 10.4315C19.1749 10.1476 19.8094 10.1476 20.3734 10.4315L23.4047 12.2055C23.8982 12.4894 24.2507 13.0571 24.2507 13.6957V17.2438C24.2507 17.8115 23.9687 18.3792 23.4047 18.734L20.4439 20.5081C19.9504 20.7919 19.3159 20.7919 18.752 20.5081L15.7206 18.734C15.2272 18.4502 14.8747 17.8825 14.8747 17.2438V14.973L12.1958 16.5342V18.876C12.1958 19.4437 12.4778 20.0114 13.0418 20.3662L18.752 23.7014C19.2454 23.9852 19.8799 23.9852 20.4439 23.7014L26.154 20.3662C26.6475 20.0823 27 19.5146 27 18.876V12.1345C27 11.5669 26.718 10.9992 26.154 10.6443L20.4439 7.30911Z" fill="#8247E5"/>
    </svg>
    